<svg width="525" height="525" viewBox="0 0 525 525" fill="none" xmlns="http://www.w3.org/2000/svg">
<circle cx="265" cy="262" r="229" fill="#E4714C"/>
<path d="M128.849 206.625L119.939 208.025L113.299 165.769L127.767 163.495C130.994 162.988 133.853 163.185 136.343 164.085C138.849 164.963 140.872 166.377 142.411 168.327C143.967 170.255 144.954 172.556 145.375 175.23C145.792 177.885 145.554 180.417 144.661 182.828C143.783 185.216 142.304 187.259 140.222 188.956C138.137 190.634 135.491 191.725 132.282 192.23L126.724 193.103L128.849 206.625ZM126.292 190.353L121.633 186.858L130.256 185.503C131.746 185.268 132.998 184.768 134.013 184.002C135.024 183.217 135.746 182.203 136.177 180.961C136.605 179.7 136.691 178.258 136.436 176.635C136.178 174.992 135.66 173.684 134.88 172.711C134.117 171.715 133.141 171.046 131.952 170.705C130.78 170.341 129.429 170.279 127.902 170.519L119.278 171.875L122.623 167.004L126.292 190.353ZM155.33 202.464L150.549 172.039L159.458 170.639L161.106 181.124L159.092 180.267C159.077 178.801 159.252 177.423 159.617 176.133C159.982 174.843 160.534 173.689 161.275 172.673C162.012 171.637 162.944 170.776 164.069 170.091C165.213 169.402 166.568 168.935 168.135 168.689C169.357 168.496 170.327 168.442 171.044 168.525C171.778 168.586 172.238 168.65 172.425 168.719L172.216 176.913C172.029 176.844 171.623 176.751 170.998 176.634C170.373 176.517 169.592 176.532 168.656 176.679C167.129 176.919 165.889 177.378 164.939 178.056C163.989 178.734 163.266 179.552 162.771 180.511C162.292 181.447 161.999 182.452 161.894 183.525C161.789 184.599 161.819 185.66 161.984 186.711L164.239 201.064L155.33 202.464ZM182.562 185.327L181.639 179.454L201.807 176.284L201.182 177.909C201.158 177.756 201.135 177.613 201.114 177.479C201.09 177.327 201.068 177.183 201.047 177.05C200.876 175.961 200.454 174.961 199.783 174.048C199.108 173.117 198.177 172.422 196.989 171.963C195.817 171.482 194.391 171.373 192.711 171.637C191.03 171.901 189.635 172.492 188.527 173.41C187.435 174.306 186.669 175.473 186.23 176.912C185.81 178.348 185.748 180.011 186.045 181.902C186.351 183.85 186.92 185.473 187.75 186.772C188.596 188.048 189.689 188.962 191.029 189.515C192.387 190.065 193.983 190.196 195.817 189.907C197.001 189.721 198.006 189.456 198.832 189.111C199.656 188.746 200.308 188.35 200.789 187.923C201.289 187.492 201.649 187.044 201.869 186.578C202.09 186.113 202.197 185.676 202.191 185.266L210.958 183.888C211.044 185.186 210.803 186.515 210.234 187.877C209.662 189.219 208.776 190.493 207.576 191.7C206.373 192.887 204.843 193.92 202.985 194.799C201.146 195.675 198.985 196.308 196.502 196.698C193.141 197.227 190.104 197.019 187.392 196.075C184.677 195.112 182.446 193.555 180.698 191.403C178.948 189.231 177.828 186.589 177.339 183.476C176.844 180.325 177.107 177.455 178.129 174.868C179.168 172.258 180.834 170.098 183.129 168.387C185.44 166.654 188.247 165.528 191.552 165.009C194.932 164.477 197.961 164.696 200.638 165.665C203.311 166.615 205.507 168.198 207.226 170.413C208.941 172.609 210.05 175.312 210.554 178.52C210.63 178.998 210.692 179.458 210.742 179.9C210.792 180.342 210.814 180.672 210.809 180.888L182.562 185.327ZM231.216 191.243C229.402 191.528 227.621 191.593 225.875 191.437C224.128 191.281 222.522 190.897 221.056 190.286C219.609 189.672 218.398 188.815 217.423 187.716C216.463 186.594 215.855 185.212 215.597 183.57C215.585 183.494 215.571 183.408 215.556 183.312C215.538 183.198 215.525 183.112 215.516 183.054L224.339 181.668C224.348 181.725 224.359 181.792 224.371 181.868C224.38 181.926 224.39 181.992 224.402 182.069C224.577 183.176 225.191 183.912 226.246 184.274C227.32 184.634 228.698 184.682 230.379 184.418C231.257 184.279 232.084 184.061 232.859 183.764C233.65 183.443 234.272 183.042 234.725 182.56C235.194 182.056 235.379 181.489 235.279 180.859C235.12 179.846 234.444 179.219 233.252 178.976C232.078 178.729 230.226 178.59 227.696 178.557C226.266 178.547 224.802 178.444 223.303 178.249C221.805 178.054 220.4 177.707 219.089 177.209C217.774 176.691 216.67 175.955 215.776 174.999C214.88 174.025 214.31 172.764 214.067 171.217C213.742 169.154 214.09 167.319 215.109 165.71C216.148 164.099 217.651 162.767 219.619 161.714C221.586 160.661 223.821 159.938 226.323 159.545C228.711 159.169 230.999 159.221 233.187 159.699C235.373 160.158 237.223 161.032 238.737 162.32C240.247 163.59 241.166 165.265 241.493 167.347C241.499 167.385 241.508 167.443 241.52 167.519C241.532 167.595 241.544 167.672 241.556 167.748L232.819 169.121C232.807 169.045 232.796 168.978 232.787 168.921C232.778 168.863 232.771 168.816 232.765 168.778C232.644 168.014 232.299 167.432 231.727 167.032C231.175 166.63 230.508 166.373 229.727 166.261C228.943 166.129 228.15 166.127 227.348 166.253C226.622 166.367 225.881 166.571 225.125 166.866C224.385 167.139 223.778 167.509 223.303 167.975C222.825 168.421 222.639 168.979 222.744 169.648C222.846 170.297 223.217 170.787 223.856 171.117C224.492 171.428 225.346 171.636 226.42 171.741C227.49 171.828 228.721 171.879 230.113 171.895C231.426 171.904 232.819 171.988 234.292 172.148C235.782 172.286 237.201 172.601 238.551 173.094C239.916 173.564 241.068 174.293 242.006 175.281C242.96 176.246 243.569 177.569 243.834 179.25C244.107 180.988 243.94 182.541 243.333 183.908C242.725 185.276 241.796 186.459 240.544 187.458C239.308 188.435 237.878 189.237 236.254 189.864C234.653 190.507 232.973 190.967 231.216 191.243ZM263.558 186.161C261.743 186.446 259.963 186.511 258.216 186.355C256.469 186.198 254.863 185.815 253.397 185.204C251.95 184.59 250.739 183.733 249.764 182.634C248.805 181.512 248.196 180.13 247.938 178.488C247.926 178.411 247.913 178.325 247.898 178.23C247.88 178.115 247.866 178.029 247.857 177.972L256.681 176.585C256.69 176.643 256.7 176.71 256.712 176.786C256.721 176.843 256.732 176.91 256.744 176.986C256.918 178.094 257.533 178.829 258.588 179.192C259.662 179.552 261.039 179.599 262.72 179.335C263.599 179.197 264.425 178.979 265.201 178.681C265.992 178.361 266.614 177.96 267.066 177.478C267.535 176.974 267.72 176.407 267.621 175.776C267.462 174.764 266.786 174.136 265.593 173.893C264.419 173.647 262.567 173.508 260.038 173.475C258.607 173.465 257.143 173.362 255.645 173.167C254.146 172.972 252.741 172.625 251.43 172.127C250.116 171.609 249.012 170.872 248.118 169.917C247.221 168.942 246.651 167.681 246.408 166.134C246.084 164.072 246.431 162.236 247.451 160.628C248.489 159.016 249.992 157.684 251.96 156.631C253.928 155.578 256.163 154.855 258.665 154.462C261.052 154.087 263.34 154.139 265.529 154.617C267.714 155.075 269.564 155.949 271.078 157.238C272.589 158.507 273.508 160.183 273.835 162.265C273.841 162.303 273.85 162.36 273.862 162.437C273.874 162.513 273.886 162.59 273.898 162.666L265.16 164.039C265.148 163.963 265.137 163.896 265.128 163.838C265.119 163.781 265.112 163.733 265.106 163.695C264.986 162.931 264.64 162.35 264.068 161.95C263.516 161.548 262.849 161.29 262.068 161.178C261.285 161.047 260.491 161.044 259.689 161.171C258.964 161.285 258.223 161.489 257.467 161.784C256.727 162.057 256.119 162.426 255.645 162.892C255.167 163.339 254.98 163.897 255.086 164.565C255.188 165.215 255.558 165.704 256.197 166.035C256.833 166.346 257.688 166.554 258.761 166.659C259.831 166.745 261.063 166.797 262.455 166.813C263.767 166.822 265.16 166.906 266.634 167.066C268.123 167.204 269.543 167.519 270.892 168.011C272.258 168.482 273.409 169.211 274.348 170.198C275.302 171.164 275.911 172.487 276.175 174.168C276.448 175.906 276.281 177.459 275.674 178.826C275.067 180.194 274.137 181.377 272.885 182.376C271.649 183.353 270.219 184.155 268.596 184.782C266.994 185.425 265.315 185.885 263.558 186.161ZM295.404 142.436C296.779 142.22 297.949 142.437 298.912 143.088C299.875 143.739 300.468 144.772 300.69 146.185C300.906 147.56 300.619 148.779 299.827 149.843C299.051 150.885 297.804 151.541 296.085 151.811C294.366 152.081 292.949 151.717 291.833 150.718C290.736 149.716 290.045 148.308 289.76 146.493C289.49 144.775 289.673 143.2 290.309 141.769C290.961 140.316 291.857 139.04 292.995 137.942C294.134 136.843 295.291 135.927 296.468 135.194L297.837 137.181C297.067 137.634 296.298 138.225 295.532 138.952C294.785 139.676 294.182 140.446 293.723 141.262C293.264 142.078 293.08 142.84 293.172 143.55C293.231 143.423 293.455 143.232 293.845 142.975C294.235 142.718 294.755 142.538 295.404 142.436ZM308.153 140.433C309.528 140.217 310.697 140.434 311.661 141.085C312.624 141.736 313.217 142.768 313.439 144.182C313.655 145.557 313.367 146.776 312.575 147.84C311.8 148.882 310.552 149.538 308.833 149.808C307.115 150.078 305.697 149.713 304.581 148.715C303.484 147.713 302.793 146.305 302.508 144.49C302.238 142.771 302.421 141.196 303.057 139.766C303.71 138.313 304.605 137.037 305.744 135.938C306.882 134.839 308.04 133.924 309.216 133.191L310.585 135.177C309.815 135.631 309.047 136.221 308.281 136.949C307.533 137.673 306.93 138.443 306.471 139.259C306.012 140.074 305.829 140.837 305.921 141.547C305.979 141.42 306.203 141.228 306.594 140.971C306.984 140.714 307.503 140.535 308.153 140.433ZM337.079 173.492L344.642 172.303C344.786 173.22 345.221 173.935 345.948 174.447C346.696 174.975 347.548 175.35 348.502 175.572C349.457 175.794 350.349 175.928 351.178 175.973C352.026 176.016 352.606 176.033 352.918 176.023L351.329 182.349C351.039 182.375 350.413 182.376 349.45 182.351C348.509 182.342 347.395 182.224 346.106 181.996C344.837 181.765 343.567 181.338 342.295 180.716C341.026 180.113 339.909 179.232 338.944 178.072C337.998 176.909 337.376 175.383 337.079 173.492ZM341.261 173.95C338.625 174.365 336.086 174.274 333.644 173.679C331.202 173.085 328.967 171.998 326.938 170.418C324.909 168.839 323.184 166.771 321.765 164.215C320.343 161.64 319.355 158.595 318.803 155.081C318.248 151.548 318.246 148.358 318.797 145.512C319.364 142.644 320.372 140.156 321.822 138.05C323.272 135.943 325.069 134.242 327.214 132.946C329.359 131.65 331.759 130.793 334.413 130.376C337.049 129.962 339.586 130.043 342.025 130.618C344.483 131.191 346.725 132.258 348.751 133.818C350.778 135.378 352.491 137.438 353.891 139.997C355.288 142.537 356.264 145.574 356.82 149.107C357.372 152.621 357.366 155.822 356.802 158.709C356.254 161.574 355.247 164.071 353.781 166.2C352.334 168.325 350.531 170.047 348.37 171.365C346.228 172.681 343.858 173.542 341.261 173.95ZM340.14 166.817C341.916 166.538 343.482 165.793 344.838 164.582C346.213 163.367 347.189 161.609 347.766 159.307C348.341 156.986 348.351 154.058 347.795 150.525C347.237 146.973 346.322 144.2 345.05 142.208C343.797 140.213 342.343 138.866 340.687 138.168C339.028 137.45 337.311 137.23 335.534 137.51C333.758 137.789 332.181 138.526 330.803 139.721C329.441 140.894 328.47 142.622 327.89 144.905C327.309 147.188 327.298 150.106 327.856 153.658C328.414 157.211 329.321 159.994 330.577 162.008C331.833 164.022 333.292 165.398 334.954 166.135C336.635 166.869 338.364 167.096 340.14 166.817ZM374.76 132.901C373.404 133.114 372.235 132.897 371.253 132.249C370.286 131.579 369.693 130.547 369.474 129.152C369.255 127.758 369.535 126.55 370.314 125.527C371.108 124.482 372.365 123.825 374.084 123.555C375.803 123.285 377.211 123.651 378.308 124.653C379.424 125.651 380.123 127.049 380.405 128.844C380.675 130.563 380.484 132.149 379.832 133.602C379.195 135.032 378.308 136.297 377.169 137.396C376.05 138.492 374.902 139.406 373.725 140.139L372.328 138.157C373.117 137.7 373.885 137.109 374.633 136.385C375.399 135.658 376.012 134.887 376.471 134.071C376.93 133.255 377.103 132.494 376.992 131.787C376.931 131.895 376.707 132.087 376.32 132.363C375.949 132.617 375.429 132.796 374.76 132.901ZM362.012 134.905C360.656 135.118 359.486 134.9 358.504 134.252C357.538 133.582 356.945 132.55 356.726 131.156C356.507 129.762 356.786 128.553 357.565 127.531C358.36 126.486 359.617 125.828 361.336 125.558C363.074 125.285 364.491 125.65 365.588 126.651C366.704 127.65 367.403 129.047 367.685 130.843C367.955 132.562 367.764 134.148 367.112 135.6C366.456 137.034 365.559 138.3 364.421 139.399C363.301 140.495 362.153 141.409 360.977 142.142L359.579 140.16C360.368 139.703 361.137 139.113 361.884 138.389C362.631 137.665 363.235 136.895 363.693 136.079C364.171 135.26 364.364 134.496 364.273 133.786C364.211 133.894 363.987 134.085 363.6 134.362C363.21 134.619 362.68 134.8 362.012 134.905ZM121.697 307.597C120.532 307.781 119.312 307.865 118.038 307.85C116.786 307.851 115.578 307.639 114.416 307.215C113.269 306.769 112.28 306.015 111.447 304.952C110.615 303.889 110.048 302.402 109.748 300.492C109.682 300.072 109.615 299.642 109.546 299.203C109.477 298.764 109.408 298.324 109.339 297.885L107.326 285.079L100.307 286.182L99.2269 279.307L101.204 278.996C102.35 278.816 103.249 278.626 103.903 278.425C104.575 278.222 105.044 277.903 105.309 277.47C105.589 277.015 105.711 276.36 105.675 275.505C105.638 274.649 105.504 273.486 105.273 272.016L104.67 268.177L113.58 266.777L115.155 276.804L124.008 275.413L125.088 282.288L116.236 283.679L117.956 294.623C118.01 294.967 118.062 295.301 118.113 295.626C118.164 295.95 118.214 296.265 118.262 296.571C118.469 297.889 118.79 298.934 119.224 299.708C119.678 300.478 120.535 300.764 121.796 300.566C122.426 300.467 123.009 300.316 123.545 300.115C124.1 299.91 124.512 299.728 124.78 299.568L125.829 306.244C125.455 306.479 124.916 306.72 124.211 306.968C123.509 307.234 122.671 307.444 121.697 307.597ZM148.51 303.413C145.225 303.929 142.225 303.706 139.51 302.743C136.795 301.78 134.545 300.226 132.759 298.08C130.99 295.911 129.861 293.271 129.371 290.158C128.885 287.064 129.153 284.223 130.175 281.636C131.213 279.026 132.88 276.866 135.175 275.155C137.467 273.425 140.255 272.302 143.54 271.785C146.825 271.269 149.824 271.483 152.536 272.427C155.245 273.351 157.484 274.898 159.253 277.066C161.039 279.212 162.175 281.832 162.661 284.926C163.15 288.04 162.876 290.901 161.838 293.51C160.815 296.098 159.16 298.266 156.871 300.015C154.582 301.764 151.795 302.897 148.51 303.413ZM147.403 296.366C148.95 296.123 150.239 295.548 151.271 294.642C152.303 293.736 153.031 292.575 153.454 291.158C153.874 289.722 153.944 288.116 153.665 286.34C153.386 284.564 152.829 283.076 151.995 281.876C151.158 280.657 150.111 279.785 148.854 279.258C147.597 278.732 146.195 278.59 144.648 278.833C143.12 279.073 141.829 279.638 140.775 280.528C139.74 281.414 139.011 282.566 138.588 283.983C138.161 285.381 138.088 286.968 138.367 288.744C138.646 290.52 139.206 292.027 140.046 293.265C140.884 294.484 141.932 295.366 143.192 295.912C144.471 296.455 145.875 296.606 147.403 296.366ZM197.694 295.714C195.879 295.999 194.099 296.063 192.352 295.907C190.605 295.751 188.999 295.368 187.533 294.756C186.086 294.142 184.875 293.286 183.9 292.186C182.941 291.065 182.332 289.683 182.074 288.04C182.062 287.964 182.049 287.878 182.034 287.783C182.016 287.668 182.002 287.582 181.993 287.525L190.817 286.138C190.826 286.195 190.836 286.262 190.849 286.339C190.858 286.396 190.868 286.463 190.88 286.539C191.054 287.647 191.669 288.382 192.724 288.745C193.798 289.104 195.175 289.152 196.856 288.888C197.735 288.75 198.561 288.532 199.337 288.234C200.128 287.914 200.75 287.513 201.202 287.031C201.671 286.527 201.856 285.959 201.757 285.329C201.598 284.317 200.922 283.689 199.729 283.446C198.555 283.2 196.704 283.06 194.174 283.027C192.744 283.017 191.279 282.915 189.781 282.72C188.282 282.525 186.877 282.178 185.566 281.679C184.252 281.162 183.148 280.425 182.254 279.47C181.357 278.495 180.787 277.234 180.544 275.687C180.22 273.625 180.568 271.789 181.587 270.181C182.625 268.569 184.128 267.237 186.096 266.184C188.064 265.131 190.299 264.408 192.801 264.015C195.188 263.64 197.476 263.691 199.665 264.169C201.851 264.628 203.7 265.502 205.214 266.791C206.725 268.06 207.644 269.736 207.971 271.818C207.977 271.856 207.986 271.913 207.998 271.99C208.01 272.066 208.022 272.142 208.034 272.219L199.296 273.592C199.284 273.515 199.274 273.449 199.265 273.391C199.256 273.334 199.248 273.286 199.242 273.248C199.122 272.484 198.776 271.902 198.205 271.503C197.652 271.1 196.985 270.843 196.205 270.731C195.421 270.6 194.628 270.597 193.825 270.723C193.1 270.837 192.359 271.042 191.603 271.337C190.863 271.61 190.255 271.979 189.781 272.445C189.303 272.892 189.117 273.45 189.222 274.118C189.324 274.767 189.694 275.257 190.333 275.587C190.969 275.898 191.824 276.107 192.897 276.212C193.968 276.298 195.199 276.349 196.591 276.365C197.904 276.374 199.297 276.459 200.77 276.619C202.259 276.756 203.679 277.072 205.028 277.564C206.394 278.034 207.546 278.764 208.484 279.751C209.438 280.717 210.047 282.04 210.311 283.721C210.584 285.459 210.417 287.011 209.81 288.379C209.203 289.746 208.273 290.93 207.021 291.929C205.785 292.906 204.356 293.708 202.732 294.335C201.13 294.978 199.451 295.438 197.694 295.714ZM231.703 290.311C230.538 290.494 229.318 290.578 228.043 290.563C226.791 290.564 225.584 290.352 224.421 289.928C223.275 289.482 222.285 288.728 221.453 287.665C220.62 286.602 220.054 285.115 219.754 283.206C219.688 282.785 219.62 282.356 219.551 281.916C219.482 281.477 219.413 281.038 219.344 280.599L217.332 267.793L210.313 268.896L209.232 262.02L211.209 261.709C212.355 261.529 213.255 261.339 213.908 261.138C214.581 260.935 215.049 260.617 215.314 260.184C215.595 259.729 215.717 259.073 215.68 258.218C215.644 257.363 215.51 256.2 215.279 254.729L214.676 250.89L223.585 249.49L225.161 259.517L234.013 258.126L235.094 265.001L226.241 266.393L227.961 277.336C228.015 277.68 228.068 278.014 228.119 278.339C228.17 278.664 228.219 278.979 228.267 279.284C228.474 280.602 228.795 281.648 229.23 282.421C229.684 283.191 230.541 283.477 231.801 283.279C232.432 283.18 233.015 283.03 233.55 282.828C234.105 282.624 234.517 282.441 234.786 282.282L235.835 288.957C235.46 289.192 234.921 289.433 234.216 289.681C233.515 289.948 232.677 290.158 231.703 290.311ZM258.516 286.127C255.231 286.643 252.231 286.419 249.516 285.457C246.801 284.494 244.55 282.939 242.765 280.793C240.995 278.625 239.866 275.984 239.377 272.871C238.891 269.777 239.159 266.936 240.181 264.349C241.219 261.739 242.885 259.579 245.18 257.868C247.472 256.138 250.261 255.015 253.546 254.499C256.831 253.982 259.829 254.196 262.541 255.14C265.25 256.065 267.49 257.611 269.259 259.779C271.044 261.926 272.18 264.546 272.666 267.64C273.156 270.753 272.881 273.614 271.843 276.224C270.821 278.811 269.165 280.979 266.877 282.728C264.588 284.478 261.801 285.61 258.516 286.127ZM257.408 279.079C258.955 278.836 260.245 278.261 261.277 277.356C262.309 276.45 263.036 275.288 263.459 273.872C263.879 272.436 263.95 270.829 263.671 269.053C263.392 267.277 262.835 265.789 262.001 264.589C261.163 263.371 260.116 262.498 258.859 261.971C257.602 261.445 256.2 261.303 254.653 261.546C253.125 261.786 251.834 262.351 250.78 263.241C249.745 264.128 249.016 265.279 248.593 266.696C248.167 268.094 248.093 269.681 248.373 271.457C248.652 273.234 249.211 274.741 250.052 275.978C250.889 277.197 251.938 278.079 253.198 278.625C254.477 279.168 255.88 279.319 257.408 279.079ZM282.572 294.5L275.823 251.556L284.733 250.156L291.481 293.1L282.572 294.5ZM299.019 279.791C296.612 280.169 294.306 279.876 292.099 278.912C289.89 277.928 288.013 276.442 286.467 274.454C284.919 272.447 283.93 270.077 283.501 267.346C283.489 267.27 283.478 267.203 283.469 267.146C283.457 267.069 283.444 266.983 283.429 266.888L287.254 266.199C287.263 266.256 287.272 266.313 287.281 266.371C287.29 266.428 287.299 266.485 287.308 266.542C287.53 267.956 288.069 269.143 288.925 270.105C289.777 271.047 290.793 271.719 291.972 272.121C293.15 272.523 294.332 272.631 295.516 272.445C297.464 272.139 299.049 271.205 300.272 269.643C301.51 268.058 301.904 265.834 301.454 262.969C301.004 260.104 299.96 258.135 298.324 257.061C296.684 255.969 294.881 255.577 292.914 255.886C291.73 256.072 290.638 256.537 289.64 257.281C288.638 258.006 287.875 258.938 287.349 260.078C286.824 261.217 286.673 262.503 286.899 263.935L283.024 264.309C282.591 261.559 282.812 259.039 283.685 256.749C284.555 254.44 285.897 252.517 287.71 250.979C289.523 249.442 291.633 248.484 294.04 248.106C296.504 247.719 298.901 247.968 301.232 248.854C303.56 249.722 305.566 251.217 307.25 253.34C308.953 255.46 310.068 258.191 310.593 261.533C311.142 265.028 310.955 268.071 310.031 270.663C309.108 273.254 307.672 275.329 305.725 276.888C303.775 278.427 301.54 279.395 299.019 279.791ZM347.919 272.048C346.754 272.231 345.534 272.315 344.26 272.3C343.007 272.301 341.8 272.09 340.637 271.666C339.491 271.22 338.501 270.465 337.669 269.402C336.837 268.339 336.27 266.853 335.97 264.943C335.904 264.523 335.837 264.093 335.768 263.654C335.699 263.214 335.63 262.775 335.56 262.336L333.548 249.53L326.529 250.633L325.449 243.757L327.426 243.447C328.571 243.267 329.471 243.076 330.125 242.876C330.797 242.672 331.266 242.354 331.53 241.921C331.811 241.466 331.933 240.811 331.897 239.955C331.86 239.1 331.726 237.937 331.495 236.466L330.892 232.627L339.802 231.227L341.377 241.254L350.23 239.863L351.31 246.739L342.458 248.13L344.178 259.074C344.232 259.417 344.284 259.752 344.335 260.076C344.386 260.401 344.436 260.716 344.484 261.022C344.691 262.339 345.012 263.385 345.446 264.158C345.9 264.928 346.757 265.215 348.018 265.016C348.648 264.917 349.231 264.767 349.767 264.565C350.322 264.361 350.734 264.179 351.002 264.019L352.051 270.694C351.677 270.929 351.137 271.17 350.433 271.418C349.731 271.685 348.893 271.895 347.919 272.048ZM381.824 266.074L380.122 255.245C380.062 254.863 379.98 254.338 379.875 253.669C379.77 253.001 379.663 252.323 379.555 251.635C379.447 250.948 379.36 250.394 379.294 249.974C378.928 247.644 378.225 245.914 377.187 244.786C376.145 243.638 374.507 243.24 372.273 243.591C370.821 243.819 369.646 244.308 368.745 245.056C367.842 245.785 367.215 246.715 366.865 247.846C366.533 248.975 366.479 250.246 366.701 251.659L363.843 250.288C363.444 247.748 363.639 245.437 364.427 243.356C365.213 241.256 366.475 239.512 368.214 238.123C369.972 236.731 372.111 235.837 374.632 235.441C378.357 234.856 381.327 235.515 383.544 237.417C385.758 239.3 387.171 242.19 387.783 246.086C387.939 247.079 388.127 248.273 388.346 249.667C388.565 251.061 388.819 252.675 389.107 254.508L390.705 264.679L381.824 266.074ZM360.395 269.442L353.358 224.664L362.239 223.269L369.276 268.046L360.395 269.442ZM398.762 250.555L397.839 244.682L418.007 241.512L417.382 243.137C417.358 242.984 417.336 242.841 417.315 242.707C417.291 242.555 417.268 242.411 417.247 242.278C417.076 241.189 416.655 240.189 415.983 239.277C415.308 238.345 414.377 237.65 413.189 237.191C412.018 236.71 410.591 236.601 408.911 236.865C407.23 237.129 405.835 237.72 404.727 238.638C403.635 239.534 402.869 240.701 402.43 242.14C402.01 243.576 401.948 245.24 402.245 247.13C402.552 249.078 403.12 250.702 403.95 252C404.796 253.276 405.889 254.19 407.229 254.743C408.587 255.293 410.183 255.424 412.017 255.136C413.201 254.949 414.206 254.684 415.032 254.339C415.856 253.974 416.508 253.578 416.989 253.151C417.489 252.72 417.849 252.272 418.069 251.807C418.29 251.341 418.397 250.904 418.391 250.494L427.158 249.116C427.244 250.414 427.003 251.743 426.434 253.105C425.862 254.447 424.976 255.721 423.776 256.928C422.573 258.115 421.043 259.148 419.185 260.027C417.346 260.903 415.185 261.536 412.702 261.926C409.341 262.455 406.304 262.247 403.592 261.303C400.877 260.34 398.646 258.783 396.898 256.631C395.148 254.459 394.028 251.817 393.539 248.704C393.044 245.553 393.307 242.683 394.329 240.096C395.368 237.486 397.034 235.326 399.329 233.615C401.64 231.882 404.448 230.756 407.752 230.237C411.132 229.706 414.161 229.924 416.838 230.893C419.512 231.843 421.708 233.426 423.426 235.641C425.141 237.837 426.25 240.54 426.755 243.749C426.83 244.226 426.892 244.686 426.942 245.128C426.992 245.57 427.014 245.9 427.009 246.116L398.762 250.555ZM212.256 392.569C210.04 392.917 208.008 392.875 206.159 392.441C204.329 392.005 202.822 391.194 201.638 390.011C200.454 388.827 199.711 387.28 199.411 385.37C199.072 383.212 199.388 381.362 200.359 379.82C201.33 378.277 202.734 377 204.571 375.987C206.424 374.952 208.479 374.14 210.735 373.551C214.026 372.701 216.281 372.043 217.5 371.578C218.737 371.109 219.303 370.541 219.198 369.872C219.195 369.853 219.192 369.834 219.189 369.815C219.012 368.688 218.328 367.886 217.138 367.407C215.966 366.926 214.416 366.837 212.487 367.14C210.443 367.461 208.936 368.08 207.964 368.996C207.009 369.89 206.649 371.091 206.887 372.6L198.149 373.973C197.765 371.528 198.099 369.362 199.153 367.474C200.226 365.583 201.831 364.03 203.969 362.813C206.104 361.577 208.603 360.734 211.468 360.284C214.142 359.864 216.68 359.886 219.082 360.35C221.481 360.795 223.495 361.721 225.125 363.129C226.775 364.533 227.796 366.486 228.189 368.988C228.252 369.389 228.315 369.79 228.378 370.191C228.438 370.573 228.5 370.965 228.563 371.366L230.255 382.138C230.379 382.921 230.516 383.672 230.668 384.392C230.837 385.089 231.053 385.721 231.318 386.286C231.614 386.924 231.94 387.441 232.296 387.835C232.651 388.229 232.938 388.497 233.156 388.639L224.418 390.012C224.263 389.9 224.01 389.656 223.657 389.28C223.324 388.902 223.018 388.451 222.74 387.927C222.406 387.295 222.129 386.654 221.909 386.003C221.706 385.331 221.532 384.536 221.388 383.619L223.42 384.592C223.083 385.936 222.385 387.161 221.326 388.267C220.283 389.351 218.979 390.27 217.414 391.025C215.866 391.757 214.146 392.272 212.256 392.569ZM213.589 385.549C214.983 385.33 216.243 384.878 217.368 384.192C218.51 383.484 219.377 382.526 219.969 381.317C220.562 380.109 220.721 378.626 220.445 376.869L219.963 373.803L222.506 375.605C221.318 376.262 219.917 376.873 218.303 377.44C216.706 377.985 215.099 378.472 213.484 378.902C211.566 379.399 210.157 379.963 209.258 380.593C208.375 381.202 208.021 382.06 208.195 383.168C208.36 384.218 208.895 384.946 209.801 385.352C210.703 385.739 211.966 385.804 213.589 385.549ZM239.981 341.683L247.018 386.461L238.251 387.838L231.215 343.061L239.981 341.683ZM264.517 384.357C262.301 384.705 260.269 384.662 258.42 384.229C256.59 383.792 255.083 382.982 253.899 381.798C252.715 380.614 251.972 379.067 251.672 377.157C251.333 374.999 251.649 373.149 252.62 371.607C253.591 370.065 254.995 368.787 256.832 367.775C258.685 366.74 260.74 365.928 262.996 365.338C266.287 364.488 268.542 363.831 269.761 363.365C270.998 362.897 271.564 362.328 271.459 361.66C271.456 361.641 271.453 361.622 271.45 361.603C271.273 360.476 270.589 359.673 269.399 359.195C268.227 358.714 266.677 358.625 264.748 358.928C262.704 359.249 261.197 359.867 260.225 360.783C259.27 361.677 258.91 362.878 259.148 364.387L250.41 365.76C250.026 363.316 250.36 361.149 251.414 359.262C252.487 357.371 254.092 355.817 256.23 354.601C258.365 353.365 260.864 352.522 263.729 352.072C266.403 351.651 268.941 351.673 271.343 352.138C273.742 352.583 275.756 353.509 277.386 354.916C279.036 356.32 280.057 358.273 280.45 360.775C280.513 361.177 280.576 361.578 280.639 361.979C280.699 362.361 280.761 362.752 280.824 363.153L282.517 373.925C282.64 374.708 282.777 375.46 282.929 376.179C283.098 376.877 283.314 377.508 283.579 378.073C283.875 378.712 284.201 379.228 284.557 379.622C284.912 380.017 285.199 380.285 285.417 380.427L276.679 381.8C276.524 381.687 276.271 381.443 275.918 381.068C275.585 380.69 275.279 380.239 275.001 379.715C274.667 379.082 274.39 378.441 274.17 377.791C273.967 377.118 273.793 376.323 273.649 375.407L275.681 376.379C275.344 377.724 274.646 378.949 273.587 380.055C272.544 381.138 271.24 382.058 269.675 382.812C268.127 383.545 266.407 384.06 264.517 384.357ZM265.85 377.337C267.244 377.118 268.504 376.665 269.629 375.98C270.771 375.272 271.638 374.314 272.23 373.105C272.823 371.896 272.982 370.413 272.706 368.656L272.224 365.591L274.768 367.393C273.579 368.049 272.178 368.661 270.564 369.228C268.967 369.772 267.36 370.259 265.745 370.689C263.827 371.187 262.418 371.75 261.519 372.381C260.636 372.989 260.282 373.847 260.456 374.955C260.621 376.006 261.156 376.734 262.062 377.139C262.964 377.526 264.227 377.592 265.85 377.337ZM290.083 379.693L285.302 349.269L294.211 347.869L295.859 358.354L293.845 357.496C293.83 356.031 294.005 354.653 294.37 353.363C294.735 352.072 295.287 350.919 296.028 349.902C296.765 348.867 297.697 348.006 298.822 347.32C299.966 346.632 301.322 346.164 302.888 345.918C304.11 345.726 305.08 345.672 305.797 345.754C306.531 345.815 306.991 345.88 307.178 345.948L306.969 354.142C306.782 354.074 306.376 353.981 305.751 353.864C305.126 353.747 304.345 353.762 303.409 353.909C301.882 354.149 300.642 354.608 299.692 355.286C298.742 355.964 298.019 356.782 297.524 357.74C297.045 358.677 296.753 359.681 296.647 360.755C296.542 361.828 296.572 362.89 296.737 363.94L298.992 378.293L290.083 379.693ZM335.431 372.567L333.581 360.793C333.403 359.666 333.25 358.692 333.121 357.871C332.989 357.03 332.88 356.333 332.793 355.779C332.67 354.996 332.5 354.23 332.285 353.481C332.088 352.729 331.786 352.053 331.379 351.451C330.987 350.828 330.456 350.373 329.785 350.087C329.11 349.782 328.248 349.712 327.198 349.877C326.224 350.03 325.416 350.373 324.776 350.904C324.132 351.416 323.638 352.071 323.294 352.869C322.965 353.644 322.77 354.517 322.707 355.485C322.641 356.435 322.687 357.416 322.846 358.428L320.096 356.806C319.691 354.227 319.8 351.872 320.424 349.738C321.045 347.586 322.126 345.811 323.668 344.414C325.226 342.995 327.189 342.099 329.557 341.727C332.097 341.328 334.16 341.562 335.744 342.428C337.344 343.273 338.572 344.548 339.427 346.253C340.298 347.936 340.904 349.857 341.243 352.015C341.372 352.836 341.546 353.944 341.765 355.338C341.984 356.732 342.247 358.403 342.553 360.352L344.255 371.181L335.431 372.567ZM316.437 375.552L311.656 345.127L320.537 343.732L325.318 374.156L316.437 375.552ZM354.339 369.596L352.493 357.85C352.31 356.685 352.152 355.682 352.02 354.842C351.888 354.002 351.779 353.305 351.692 352.751C351.56 351.91 351.386 351.116 351.17 350.367C350.952 349.599 350.64 348.924 350.236 348.341C349.831 347.759 349.294 347.335 348.626 347.068C347.958 346.801 347.099 346.75 346.048 346.915C345.074 347.068 344.267 347.41 343.626 347.941C343.002 348.451 342.525 349.093 342.197 349.869C341.869 350.644 341.67 351.498 341.601 352.428C341.551 353.356 341.603 354.307 341.756 355.281L339.01 353.687C338.611 351.147 338.715 348.821 339.323 346.71C339.95 344.595 341.024 342.841 342.547 341.447C344.086 340.031 346.049 339.136 348.436 338.76C350.919 338.37 352.959 338.588 354.557 339.413C356.174 340.236 357.425 341.477 358.313 343.138C359.216 344.777 359.837 346.676 360.177 348.834C360.312 349.693 360.486 350.801 360.699 352.157C360.912 353.513 361.171 355.165 361.478 357.113L363.22 368.2L354.339 369.596Z" fill="white"/>
</svg>
