<?xml version="1.0" encoding="utf-8"?>
<!-- Generator: Adobe Illustrator 24.2.3, SVG Export Plug-In . SVG Version: 6.00 Build 0)  -->
<svg version="1.1" id="Слой_1" xmlns="http://www.w3.org/2000/svg" xmlns:xlink="http://www.w3.org/1999/xlink" x="0px" y="0px"
	 viewBox="0 0 854.3 854.3" style="enable-background:new 0 0 854.3 854.3;" xml:space="preserve">
<style type="text/css">
	.st0{fill:none;stroke:#5BB789;stroke-width:6;stroke-miterlimit:10;}
	.st1{fill:#5BB789;}
	.st2{fill:#5BB789;stroke:#5BB789;stroke-miterlimit:10;}
	.st3{fill:#FFFFFF;stroke:#5BB789;stroke-width:6;stroke-miterlimit:10;}
	.st4{fill:none;stroke:#5BB789;stroke-width:6;stroke-linecap:round;stroke-miterlimit:10;}
	.st5{fill:#E4714C;}
</style>
<g>
	<path class="st0" d="M305.5,181.8v-17.8c0-31.5,13.7-57.1,30.6-57.1h219.5c16.9,0,30.6,25.6,30.6,57.1v17.8"/>
	<path class="st1" d="M379.6,225.8H260.7c-9.2,0-16.6-9.3-16.6-20.8v-6.5c0-11.5,7.4-20.8,16.6-20.8h118.9c9.2,0,16.6,9.3,16.6,20.8
		v6.5C396.2,216.6,388.8,225.8,379.6,225.8z"/>
	<path class="st1" d="M626.6,225.8H507.7c-9.2,0-16.6-9.3-16.6-20.8v-6.5c0-11.5,7.4-20.8,16.6-20.8h118.9c9.2,0,16.6,9.3,16.6,20.8
		v6.5C643.2,216.6,635.7,225.8,626.6,225.8z"/>
	<path class="st1" d="M469.5,191.4v2.5c0,4.4-2.8,7.9-6.3,7.9h-19.5v21.7h-6.6v-21.7h-19.5c-3.5,0-6.3-3.6-6.3-7.9v-2.5
		c0-4.4,2.8-7.9,6.3-7.9h45.5C466.7,183.5,469.5,187,469.5,191.4z"/>
	<path class="st2" d="M664.1,723.1H280.4c-22.2,0-40.2-17.9-40.2-40.2V299.3c0-22.2,17.9-40.2,40.2-40.2h383.6
		c22.2,0,40.2,17.9,40.2,40.2v383.6C704.2,705.1,686.2,723.1,664.1,723.1z"/>
	<path class="st3" d="M636.1,697.3H244.9c-22.2,0-40.2-17.9-40.2-40.2V266c0-22.2,17.9-40.2,40.2-40.2h391.2
		c22.2,0,40.2,17.9,40.2,40.2v391.2C676.2,679.4,658.3,697.3,636.1,697.3z"/>
	<circle class="st0" cx="440.5" cy="461.5" r="180.5"/>
	<polyline class="st4" points="339,384.1 440.5,461.5 415.6,385.1 	"/>
	<g>
		<g>
			<path class="st5" d="M820.2,565.6l-48.5,16.3l-32.3,22.7l54.9-6.5c12.3-1.5,22.4,9.3,20.4,21.4l0,0
				c-2.1,12.2-15.3,18.9-26.4,13.4L735.9,607l-53,37.2l54.9-6.5c12.3-1.5,22.4,9.3,20.4,21.4c-2.1,12.2-15.3,18.9-26.4,13.4
				l-52.4-25.9l-52.9,37.2l54.9-6.5c12.3-1.5,22.4,9.3,20.3,21.4c-2.1,12.2-15.3,18.9-26.4,13.4l-52.4-25.9l-96.9,68.1H515
				l104.4-73.3l-6.5-57.3c-1.4-12.3,9.4-22.4,21.6-20.3s18.8,15.4,13.3,26.4L623.6,678l52.3-36.7l-6.5-57.3
				c-1.4-12.3,9.4-22.4,21.6-20.3s18.8,15.4,13.3,26.4l-24.1,48.1l52.3-36.7l-6.5-57.3c-1.4-12.3,9.4-22.4,21.6-20.3
				c12.2,2.1,18.8,15.4,13.3,26.4l-24.2,48.3l31.5-22.1l31.7-40.1c7.6-9.7,22.6-9.3,29.6,0.9C836.7,547.5,832,561.7,820.2,565.6z"/>
		</g>
	</g>
	<polygon class="st5" points="24.3,299.3 158.3,255 21.5,240.5 	"/>
	<polygon class="st5" points="33.9,181.6 168.6,223.5 65.7,132.1 	"/>
	<polygon class="st5" points="158.3,75.7 191.1,212.9 217.2,77.8 	"/>
</g>
</svg>
