<?xml version="1.0" encoding="utf-8"?>
<!-- Generator: Adobe Illustrator 24.2.3, SVG Export Plug-In . SVG Version: 6.00 Build 0)  -->
<svg version="1.1" id="Слой_1" xmlns="http://www.w3.org/2000/svg" xmlns:xlink="http://www.w3.org/1999/xlink" x="0px" y="0px"
	 viewBox="0 0 4486.7 3500" style="enable-background:new 0 0 4486.7 3500;" xml:space="preserve">
<style type="text/css">
	.st0{fill:#A0505A;}
	.st1{fill:#73325A;}
	.st2{fill:#FFFFFF;stroke:#FFCF2D;stroke-width:5;stroke-miterlimit:10;}
	.st3{fill:none;stroke:#FFCF2D;stroke-width:5;stroke-miterlimit:10;}
	.st4{fill:#FFCF2D;}
	.st5{fill:none;stroke:#FFFFFF;stroke-width:5;stroke-linecap:round;stroke-linejoin:round;stroke-miterlimit:10;}
	.st6{fill:#E4714C;}
	.st7{fill:none;stroke:#FFFFFF;stroke-width:6;stroke-linecap:round;stroke-miterlimit:10;}
	.st8{fill:none;stroke:#FFFFFF;stroke-width:6;stroke-miterlimit:10;}
	.st9{fill:none;stroke:#FFCF2D;stroke-width:5;stroke-linecap:round;stroke-miterlimit:10;}
	.st10{fill:#D0F0E4;}
	.st11{fill:none;stroke:#FFCF2D;stroke-width:7;stroke-miterlimit:10;}
	.st12{fill:none;stroke:#FFFFFF;stroke-width:10;stroke-linecap:round;stroke-miterlimit:10;stroke-dasharray:30.0263,35.0307;}
	.st13{fill:none;stroke:#FFFFFF;stroke-width:15;stroke-linecap:round;stroke-miterlimit:10;}
	.st14{fill:#D0F0E4;stroke:#FFFFFF;stroke-width:15;stroke-linecap:round;stroke-linejoin:round;stroke-miterlimit:10;}
	.st15{fill:none;stroke:#FE5244;stroke-width:7;stroke-linecap:round;stroke-miterlimit:10;}
	.st16{fill:#D0F0E4;stroke:#FFFFFF;stroke-width:15;stroke-linecap:round;stroke-miterlimit:10;}
	.st17{fill:none;stroke:#66B0F0;stroke-width:6;stroke-miterlimit:10;}
	.st18{fill:#FFFFFF;stroke:#66B0F0;stroke-width:6;stroke-miterlimit:10;}
	.st19{fill:#66B0F0;}
	.st20{fill:none;stroke:#FFCF2D;stroke-width:6;stroke-miterlimit:10;}
	.st21{fill:#5BB789;}
	.st22{fill:#FFFFFF;stroke:#FFCF2D;stroke-width:6;stroke-miterlimit:10;}
	.st23{fill:#FFFFFF;stroke:#5BB789;stroke-width:6;stroke-miterlimit:10;}
	.st24{fill:none;stroke:#FFFFFF;stroke-width:5;stroke-linecap:round;stroke-miterlimit:10;}
	.st25{fill:#FFFFFF;stroke:#3FB1B5;stroke-width:6;stroke-miterlimit:10;}
	.st26{fill:#FFFFFF;}
	.st27{fill:#FE5244;stroke:#FE5244;stroke-width:5;stroke-miterlimit:10;}
	.st28{fill:#FFFFFF;stroke:#FE5244;stroke-width:5;stroke-miterlimit:10;}
	.st29{fill:#FFFFFF;stroke:#E4714C;stroke-width:6;stroke-miterlimit:10;}
	.st30{fill:none;stroke:#E4714C;stroke-width:6;stroke-miterlimit:10;}
	.st31{fill:none;stroke:#73325A;stroke-width:5;stroke-linecap:round;stroke-miterlimit:10;}
	.st32{fill:#FE5244;}
	.st33{fill:none;stroke:#5BB789;stroke-width:6;stroke-miterlimit:10;}
	.st34{fill:#FFCF2D;stroke:#FFCF2D;stroke-width:6;stroke-miterlimit:10;}
</style>
<path class="st0" d="M2142.2,2541.8l-16.9,46.1l-78.1,212.6c-29.3,20.7-66.3,34-107.8,34c-4.9,0-10.8-1.2-15.8-1.5
	c-43.4-3-85-22-113.8-46.2l23.3-256.4l1.7-18.6C1960.7,2560.6,2107.5,2552.4,2142.2,2541.8z"/>
<path class="st1" d="M2142.2,2541.8l-33.1,90c-101,13.7-249-68.9-275.9-101.4l1.7-18.6C1960.7,2560.6,2107.5,2552.4,2142.2,2541.8z"
	/>
<g>
	<path class="st2" d="M2048.8,2800.2l-23.9,250.3c-4.3,66-54.9,116.5-114.9,116.5c-2.7,0-5.4-0.1-8.2-0.3
		c-63.6-4.8-111.5-64.7-107-133.7l14.5-221.2l1.5-23.7c12.8,12,27.7,22.3,44.2,30.3c20.7,10,43.8,16.5,68.5,18.4
		c5,0.4,9.9,0.6,14.8,0.6c14.2,0,28.1-1.6,41.3-4.6c0.4-0.1,0.9-0.2,1.3-0.3c24.7-5.8,47.3-16.5,66.1-31
		C2047.7,2801.1,2048.3,2800.7,2048.8,2800.2z"/>
	<path class="st3" d="M2025.9,2815.4l-16.9,200.3c-3.6,55.8-46.4,98.5-97.2,98.5c-2.3,0-4.6-0.1-6.9-0.3
		c-53.7-4.1-94.3-54.7-90.5-113.1l13.3-199.3"/>
	<path class="st4" d="M1980.7,2830.3c-13.2,2.7-28.1,3.2-42.3,3.2c-4.9,0-9.8-0.2-14.8-0.5c-24.7-1.7-47.9-7.7-68.5-16.9l-6.6-32.4
		c-4.2-13.8,6.3-27.7,20.8-27.2l96,2.8c12.2,0.3,21.5,10.9,20.4,23L1980.7,2830.3z"/>
	<path class="st4" d="M1979.7,2829.3l-12.1,152.1c-2.1,29.5-30.1,51.3-56.5,46.5l-2.1-0.2c-37.6-6.9-66.4-46.1-61.5-88.1l7.6-123.6
		c20.7,9.2,43.8,15.2,68.5,16.9c5,0.4,9.9,0.5,14.8,0.5C1952.6,2833.5,1966.5,2832,1979.7,2829.3z"/>
	<path class="st5" d="M1965,2994.1l-109.5-25c-11.1-2.5-10.3-18.6,1.1-20l104.7-12.3c12.5-1.5,14.2-19,2.2-22.8l-100.3-31.8
		c-15.3-4.9-14.1-26.9,1.7-30.1l114.9-19.9c0,0-85.8,7.5-124.6-13.9"/>
</g>
<path class="st6" d="M2348.8,1979.3l-206.6,562.5c-34.7,10.6-198.4,24.6-358.2-49.5l125.7-581.5c11.7-88,86.7-153.8,175.6-153.8
	h92.4C2293.8,1756.9,2378.6,1866.9,2348.8,1979.3z"/>
<path class="st7" d="M2166.2,2481.8c-34.7,10.6-212.4,23.6-372.2-50.5"/>
<path class="st0" d="M2417.7,2552.9l-20.8,36.9l-133.1,232.9c-51.3,20.3-111.8,27.8-166,16.4l-6.8-1.9
	c-26.8-5.6-54.2-20.6-73.6-37.4l97.1-259.5c0,0,0.1,0,0.2,0C2148.2,2551.4,2263.4,2582.6,2417.7,2552.9z"/>
<path class="st1" d="M2417.7,2552.9l-43.9,77.3c-169,27-264.8-74.7-264.8-74.7l5.6-15.1C2148.2,2551.4,2263.4,2582.6,2417.7,2552.9z
	"/>
<path class="st6" d="M2702.5,2068.5L2472,2542.1c-195.1,48.8-324.1,9.3-357.4-1.7l241.2-645.1c16.5-39.1,43.9-71.4,77.8-93.9
	c33.9-22.5,74.3-35.2,116.7-35.2C2710.9,1766.2,2780.1,1927.8,2702.5,2068.5z"/>
<path class="st7" d="M2497.9,2491.1c-195.1,48.8-328.1,9.3-361.4-1.7"/>
<line class="st8" x1="2355.8" y1="1895.3" x2="2001.3" y2="2850.9"/>
<g>
	<path class="st2" d="M2261.8,2823.4l-7.8,20.5l-88.4,231.3c-25.3,79.3-108.5,126.4-181.6,108.3l-4-1.3
		c-51.3-12.7-83.9-74.5-63.8-129.1l101-246.8l2.1-5.1c12.7,11.4,27.5,20.8,44,27.6c8.8,3.6,18.1,6.5,27.8,8.6l6.8,1.9
		c28.7,6,58.3,7.1,87.5,3.7C2211.6,2839.8,2237.4,2833.2,2261.8,2823.4z"/>
	<path class="st9" d="M2233.2,2834.1l-77.5,204.8c-21.2,66.4-90.9,105.9-152.1,90.7l-3.3-1.1c-43-10.7-70.3-62.4-53.5-108.2
		l85.6-207.8"/>
	<path class="st4" d="M2203.5,2812l-18.2,30.8c-29.1,3.4-58.7,2.3-87.5-3.7l-6.8-1.9c-9.7-2-19-4.9-27.8-8.6l7.2-50
		c1.7-12,13.3-20.1,25.2-17.6l94,19.7C2203.8,2783.6,2210.9,2799.6,2203.5,2812z"/>
	<path class="st4" d="M2185.3,2842.8l-0.5,0.8l-47,124.2c-12.9,40.3-55.1,64.2-92.3,55l-2-0.7c-26.1-6.5-42.7-37.9-32.4-65.6
		l51.9-126l0.3-1.9c8.8,3.6,18.1,6.5,27.8,8.6l6.8,1.9C2126.6,2845.2,2156.2,2846.2,2185.3,2842.8z"/>
	<path class="st5" d="M2008.1,2978.6l108,11.7c13.3,1.4,18.9-16.6,7.1-22.9l-84.1-44.9c-11.5-6.1-6.7-23.5,6.3-22.9l106.2,4.8
		c14.3,0.7,19.5-18.5,6.9-25.2l-95.3-50.8c0,0,49.1,23.1,121.8,14.1"/>
</g>
<g id="TIMER">
	<circle class="st10" cx="1754.6" cy="1049.3" r="737.4"/>
	<path class="st11" d="M1507.6,1786.8c-308.3-103.2-530.5-394.4-530.5-737.5"/>
	<g>
		<circle class="st12" cx="1754.6" cy="1049.3" r="476.3"/>
	</g>
	<g>
		<line class="st13" x1="1754.6" y1="573.1" x2="1754.6" y2="652.4"/>
		<line class="st13" x1="1754.6" y1="1446.2" x2="1754.6" y2="1525.6"/>
	</g>
	<g>
		<line class="st13" x1="1417.8" y1="712.5" x2="1473.9" y2="768.7"/>
		<line class="st13" x1="2035.2" y1="1330" x2="2091.3" y2="1386.1"/>
	</g>
	<g>
		<line class="st13" x1="1278.3" y1="1049.3" x2="1357.7" y2="1049.3"/>
		<line class="st13" x1="2151.5" y1="1049.3" x2="2230.8" y2="1049.3"/>
	</g>
	<g>
		<line class="st13" x1="1417.8" y1="1386.1" x2="1473.9" y2="1330"/>
		<line class="st13" x1="2035.2" y1="768.7" x2="2091.3" y2="712.5"/>
	</g>
	<g>
		<path class="st14" d="M1754.6,1555.6c-68.3,0-134.6-13.4-197.1-39.8c-60.3-25.5-114.4-62-160.9-108.5s-83-100.6-108.5-160.9
			c-26.4-62.4-39.8-128.7-39.8-197.1c0-140.3,54.4-269.1,152.3-358l40.3,44.4c-41.7,37.9-72.4,79.5-96.2,135.3
			c-23.9,56.1-36.5,117.7-36.5,178.2c0,60.3,11.8,118.7,35.1,173.7c22.5,53.1,54.7,100.9,95.7,141.9s88.7,73.2,141.9,95.6
			c55,23.3,113.4,35.1,173.7,35.1s118.7-11.8,173.7-35.1c53.1-22.5,100.9-54.7,141.9-95.6c41-41,73.2-88.7,95.7-141.9
			c23.3-55,35.1-113.4,35.1-173.7c0-60-12.2-118.3-36.3-173.4c-23.2-53-56.4-100.8-98.6-141.9c-42.1-41-90.9-73.3-145.1-95.9
			c-55.9-23.3-105.9-33.1-166.2-33.1v-60c68.3,0,126.1,11.4,189.3,37.7c61.2,25.5,116.3,61.9,163.9,108.3
			c47.8,46.6,85.4,100.7,111.7,160.8c27.4,62.7,41.4,129.1,41.4,197.4c0,68.3-13.4,134.6-39.8,197.1
			c-25.5,60.3-62,114.4-108.5,160.9s-100.6,83-160.9,108.5C1889.2,1542.2,1822.9,1555.6,1754.6,1555.6z"/>
	</g>
	<line class="st15" x1="1505" y1="795" x2="1819.3" y2="1117.4"/>
	<circle class="st16" cx="1758" cy="1052.6" r="24.9"/>
	<path class="st13" d="M1893.8,522.8l4.5-32.1c2.2-14.8,17.1-24.2,31.4-19.8l31.4,9.5c14.3,4.3,21.5,20.4,15.1,34L1961,545"/>
</g>
<g id="TABLE">
	<polyline class="st17" points="1679.5,3187.2 1679.5,1898.7 2845.8,1898.7 2845.8,3187.2 	"/>
	<path class="st18" d="M2887.1,1941.8H1638.2c-28.2,0-51.1-22.9-51.1-51.1V1696c0-28.2,22.9-51.1,51.1-51.1h1248.9
		c28.2,0,51.1,22.9,51.1,51.1v194.7C2938.2,1918.9,2915.3,1941.8,2887.1,1941.8z"/>
	<path class="st19" d="M2890.1,1906.8H1635.2c-28.2,0-51.1-22.9-51.1-51.1V1661c0-28.2,22.9-51.1,51.1-51.1h1254.9
		c28.2,0,51.1,22.9,51.1,51.1v194.7C2941.2,1883.9,2918.3,1906.8,2890.1,1906.8z"/>
</g>
<path class="st20" d="M2882.3,2686.3v-152.6c0-52,42.2-94.2,94.2-94.2l0,0c52,0,94.2,42.2,94.2,94.2v152.6"/>
<path class="st21" d="M2789.2,3188.1h350.9c40.9,0,74.1-33.2,74.1-74.1v-488.8c0-40.9-33.2-74.1-74.1-74.1h-350.9
	c-40.9,0-74.1,33.2-74.1,74.1V3114C2715.1,3155,2748.3,3188.1,2789.2,3188.1z"/>
<path class="st8" d="M3214.1,2664.6c0-46.8-38-84.8-84.8-84.8h-273.4c-46.8,0-84.8,38-84.8,84.8v337.8"/>
<path class="st22" d="M3141.2,3188.1h-239.3c-40.3,0-72.9-32.6-72.9-72.9v-435.3c0-40.3,32.6-72.9,72.9-72.9h239.3
	c40.3,0,72.9,32.6,72.9,72.9v435.3C3214.1,3155.5,3181.5,3188.1,3141.2,3188.1z"/>
<path class="st20" d="M2935,2720.6V2568c0-52,42.2-94.2,94.2-94.2l0,0c52,0,94.2,42.2,94.2,94.2v152.6"/>
<path class="st4" d="M3140.4,3130.8H2905c-19.1,0-34.6-15.5-34.6-34.6v-179.9c0-19.1,15.5-34.6,34.6-34.6h235.4
	c19.1,0,34.6,15.5,34.6,34.6v179.9C3175.1,3115.3,3159.6,3130.8,3140.4,3130.8z"/>
<line class="st20" x1="2786.1" y1="3002.4" x2="2756.5" y2="3002.4"/>
<path class="st23" d="M2719.7,2689.5c0,145.8-159.4,362.1-104.5,431.4c52.4,66.1,104.5-0.1,104.5-0.1V2689.5z"/>
<line class="st24" x1="2889.2" y1="2948.5" x2="3153.7" y2="2948.5"/>
<rect x="2916" y="2717.6" class="st20" width="38" height="18.2"/>
<rect x="3103.7" y="2717.6" class="st20" width="38" height="18.2"/>
<g>
	<line class="st24" x1="2889.2" y1="2960.7" x2="2889.2" y2="2948.5"/>
	<line class="st24" x1="2913.2" y1="2960.7" x2="2913.2" y2="2948.5"/>
	<line class="st24" x1="2937.3" y1="2960.7" x2="2937.3" y2="2948.5"/>
	<line class="st24" x1="2961.3" y1="2960.7" x2="2961.3" y2="2948.5"/>
	<line class="st24" x1="2985.4" y1="2960.7" x2="2985.4" y2="2948.5"/>
	<line class="st24" x1="3009.4" y1="2960.7" x2="3009.4" y2="2948.5"/>
	<line class="st24" x1="3034.6" y1="2960.7" x2="3034.6" y2="2948.5"/>
	<line class="st24" x1="3058.7" y1="2960.7" x2="3058.7" y2="2948.5"/>
	<line class="st24" x1="3081.6" y1="2960.7" x2="3081.6" y2="2948.5"/>
	<line class="st24" x1="3105.6" y1="2960.7" x2="3105.6" y2="2948.5"/>
	<line class="st24" x1="3129.7" y1="2960.7" x2="3129.7" y2="2948.5"/>
	<line class="st24" x1="3153.7" y1="2960.7" x2="3153.7" y2="2948.5"/>
</g>
<path class="st25" d="M2917.1,3002.4L2917.1,3002.4c-6.5,0-11.4-5.7-10.6-12.1l5.3-41.9h10.6l5.3,41.9
	C2928.6,2996.7,2923.6,3002.4,2917.1,3002.4z"/>
<g id="TEST">
	<rect x="2076.1" y="1609.8" class="st26" width="447.5" height="236.7"/>
	<g>
		<g>
			<circle class="st27" cx="2471.2" cy="1786.7" r="9.3"/>
			<circle class="st28" cx="2436.8" cy="1786.7" r="9.3"/>
			<circle class="st28" cx="2402.5" cy="1786.7" r="9.3"/>
		</g>
		<g>
			<circle class="st27" cx="2471.2" cy="1752" r="9.3"/>
			<circle class="st28" cx="2436.8" cy="1752" r="9.3"/>
			<circle class="st28" cx="2402.5" cy="1752" r="9.3"/>
		</g>
		<g>
			<g>
				<circle class="st28" cx="2471.2" cy="1682.8" r="9.3"/>
				<circle class="st27" cx="2436.8" cy="1682.8" r="9.3"/>
				<circle class="st28" cx="2402.5" cy="1682.8" r="9.3"/>
			</g>
		</g>
		<g>
			<g>
				<circle class="st28" cx="2471.2" cy="1717.4" r="9.3"/>
				<circle class="st28" cx="2436.8" cy="1717.4" r="9.3"/>
				<circle class="st27" cx="2402.5" cy="1717.4" r="9.3"/>
			</g>
		</g>
	</g>
	<g>
		<g>
			<circle class="st27" cx="2200.2" cy="1717.4" r="9.3"/>
			<circle class="st28" cx="2165.8" cy="1717.4" r="9.3"/>
		</g>
		<g>
			<g>
				<circle class="st28" cx="2131.5" cy="1648.2" r="9.3"/>
			</g>
		</g>
		<g>
			<g>
				<circle class="st28" cx="2200.2" cy="1682.8" r="9.3"/>
				<circle class="st28" cx="2165.8" cy="1682.8" r="9.3"/>
				<circle class="st27" cx="2131.5" cy="1682.8" r="9.3"/>
			</g>
		</g>
	</g>
	<g>
		<g>
			<circle class="st28" cx="2330.2" cy="1752" r="9.3"/>
			<circle class="st28" cx="2295.8" cy="1752" r="9.3"/>
			<circle class="st27" cx="2261.5" cy="1752" r="9.3"/>
		</g>
		<g>
			<g>
				<circle class="st27" cx="2330.2" cy="1682.8" r="9.3"/>
				<circle class="st28" cx="2295.8" cy="1682.8" r="9.3"/>
				<circle class="st28" cx="2261.5" cy="1682.8" r="9.3"/>
			</g>
		</g>
		<g>
			<g>
				<circle class="st28" cx="2330.2" cy="1717.4" r="9.3"/>
				<circle class="st27" cx="2295.8" cy="1717.4" r="9.3"/>
				<circle class="st28" cx="2261.5" cy="1717.4" r="9.3"/>
			</g>
		</g>
	</g>
</g>
<path class="st29" d="M2825.2,1663.6h-461.5l0.4-53.8h-278l-80.9-237l-86.6,159.5l244.5,208.6l-116.9,158.4l-288.8-185.1
	c-52.3-34.1-83.8-92.2-83.8-154.6l0,0c0-31.2,7.9-62,23.1-89.3l134.8-243.8c56.6-102.3,164.2-165.7,281-165.7h432.9
	c72,0,139.5,35,181,93.8l209.9,292.2C3001.6,1537.3,2936.8,1663.6,2825.2,1663.6z"/>
<path class="st6" d="M2141,1844.7c-34.2,46-76.3,72.4-94.2,59.1c-17.9-13.3-4.7-61.3,29.4-107.3c34.2-46,72.3-70.4,90.2-57.1
	C2184.3,1752.7,2175.1,1798.8,2141,1844.7z"/>
<polygon class="st30" points="2149.8,1061.2 2288.3,1253.1 2416.1,1061.2 "/>
<circle class="st30" cx="2289.8" cy="1308.5" r="14.5"/>
<circle class="st30" cx="2289.8" cy="1400.5" r="14.5"/>
<polyline class="st30" points="2579.5,1360.6 2645.6,1463.1 2367.6,1463.1 2367.6,1667.1 "/>
<line class="st30" x1="2645.6" y1="1463.1" x2="2718.5" y2="1463.1"/>
<ellipse class="st6" cx="2367.6" cy="1563.4" rx="40.4" ry="103.7"/>
<path class="st30" d="M2407.6,1463.4c22.3,0,40.4,44.8,40.4,100s-18.1,100-40.4,100"/>
<path class="st30" d="M2015.7,1879.9c-17.9-13.3-4.7-61.3,29.4-107.3c34.2-46,70.3-70.4,88.2-57.1"/>
<g id="HAIR">
	<path class="st4" d="M2150.8,978.3c0.7-98.6,66.2-125.6,173.8-117c116,9.3,68.5,168.9,132.9,174.2c27,2.2,57.8-28.4,98.8-53.6
		c33.8-22.8,74.5-36.1,118.4-36.1c117.1,0,212.1,95,212.1,212.1c0,53.9-25.1,106-58.2,143.4c0,0-125.1-175.7-173.6-192.2
		c-95.4-32.4-125.7,51.4-191.9,64.4c-8.7,1.7-18,2.2-28.2,1c-94.2-10.8-76.2-166.1-76.2-166.1c-24.4-10-29.7-35.3-30.6-50.6
		c0.5-7.4,0.2-12.3,0.2-12.3s-0.6,5-0.2,12.3c-2,28.8-19.6,97.7-117.7,73v33.5c0,202.9,3.3,242.3-37.8,293.3
		c-6.1,7.6-46.9,68.9,26.2,102c94.2,42.6,27.7,154.7,27.7,154.7h-199.3c0,0-118.3-21-128.6-128.4
		c-14.7-153.5,177.8-194.6,202.9-199.3c-48.8-7.5-96.5-55.6-96.5-113.9c0-51.7,39.7-95.4,80.5-109.8c0.1,0,0.1,0,0.2-0.1
		c1.2-0.4,2.4-0.8,3.6-1.2c31.9-11,55.4-35.2,60.6-64.5L2150.8,978.3z"/>
	<g>
		<path class="st0" d="M2328.6,979.4C2328.5,979.4,2328.5,979.4,2328.6,979.4c-1.4,0-2.5-1.2-2.5-2.5l0.8-51.1
			c0-1.4,1.1-2.5,2.5-2.5l0,0c1.4,0,2.5,1.2,2.5,2.5l-0.8,51.1C2331,978.3,2329.9,979.4,2328.6,979.4z"/>
	</g>
	<g>
		<path class="st0" d="M2214.8,1037.6c-0.4,0-0.8-0.1-1.2-0.3c-24.2-12.7-29.3-25.7-29.6-26.2c-0.5-1.3,0.2-2.7,1.5-3.2
			s2.7,0.2,3.2,1.4c0.1,0.2,5,11.9,27.2,23.6c1.2,0.6,1.7,2.2,1.1,3.4C2216.6,1037.1,2215.7,1037.6,2214.8,1037.6z"/>
	</g>
	<circle class="st4" cx="2550.7" cy="920.7" r="30"/>
	<circle class="st4" cx="2197.6" cy="1401" r="24.1"/>
</g>
<g id="ARMS">
	<g>
		<path class="st0" d="M2349.4,1763.7l-0.1,18.2c0,1.6-0.4,3.2-1,4.6l-43.8,97.6c-6.5,14.1-20.6,23.1-36.1,23.1h-93.7
			c-23.4,0-46.1-7.9-64.5-22.3l-3.3-2.6l-55.8-43.9l0,0c6.2-13.4,14.7-27.7,25.2-41.8c20-27,42.9-47.2,61.9-56.7h134.5
			c10.7,23.9-24.1,43.1-24.1,43.1h60.8l22-23.9C2337.1,1752.9,2347.4,1755.6,2349.4,1763.7z"/>
		<path class="st31" d="M2314.8,1854.4c-6.5,14.1-20.6,23.1-36.1,23.1h-78.9"/>
		<path class="st31" d="M2328.6,1823.5c-6.5,14.1-20.6,23.1-36.1,23.1h-78.9"/>
		<path class="st31" d="M2343.5,1789.1c-6.5,14.1-20.6,23.1-36.1,23.1h-78.9"/>
		<path class="st1" d="M2140,1842.7c-8.9,14.5-22,29.6-33.1,39.6l-0.1-0.1l-55.8-43.9l0,0c6.2-13.4,14.7-27.7,25.2-41.8
			c20-27,42.9-47.2,61.9-56.7h28.9C2169.6,1762.5,2165.8,1800.7,2140,1842.7z"/>
	</g>
	<g>
		<path class="st32" d="M2235.9,1534.2c0,0,48.6-129.7,67.4-127.1c18.7,2.5-41.9,117.5-41.9,117.5L2235.9,1534.2z"/>
		<g>
			<path class="st0" d="M2408,1563.4c0,55.5-17,100.7-38.3,103.5c-0.7,0.1-1.4,0.1-2.1,0.1h-198c-6,0-10.8-4.8-10.8-10.8V1593
				c0-17.9,11-33.9,27.7-40.2l82.9-31.4c7.5-2.8,15.5-4.3,23.5-4.3h110.8C2406.4,1531.1,2408,1546.8,2408,1563.4z"/>
			<path class="st31" d="M2245.8,1566.8l-62.6,23.7c-12.6,4.8-20.9,16.9-20.9,30.3"/>
			<path class="st31" d="M2245.8,1604.6l-62.6,23.7c-12.6,4.8-20.9,16.9-20.9,30.3"/>
			<line class="st31" x1="2242.4" y1="1639.9" x2="2179.8" y2="1663.6"/>
			<path class="st1" d="M2408,1563.4c0,55.5-17,100.7-38.3,103.5c-0.7,0.1-1.4,0.1-2.1,0.1c-22.3,0-40.4-46.4-40.4-103.7
				c0-15.3,2.3-32.7,4.7-46.3h71.3C2405.7,1530.7,2408,1548.1,2408,1563.4z"/>
		</g>
	</g>
</g>
<g id="HEAD">
	<path id="HEAD_1_" class="st0" d="M2391.4,1030.7c0,5.8-2,11.3-5.3,15.6c-3.4,4.4-8.1,7.6-13.8,9.1l-13.8,3.6v15.4
		c0,37.2-30.1,67.3-67.3,67.3h-13.3c-37.1,0-67.1-30-67.3-67v-44c98.1,24.8,115.7-44.2,117.7-73c0.8,14.6,5.7,38.2,27.3,49.1l3.8-1
		C2375.6,1001.8,2391.4,1014,2391.4,1030.7z"/>
	<g id="FACE">
		<path class="st31" d="M2308,1043.1c0,0,20.4-2,32.2,8.1"/>
		<path class="st31" d="M2228.8,1048.8c0,0,15-8.1,31.8-0.7c10,4.4,16.6,28,16.8,59.2"/>
		<ellipse class="st1" cx="2248" cy="1071.8" rx="3.9" ry="7.5"/>
		<ellipse class="st1" cx="2320.6" cy="1071.8" rx="3.9" ry="7.5"/>
		<path class="st31" d="M2362.3,1040.4c0-8.7,6.1-16.2,14.6-18"/>
	</g>
</g>
<path class="st21" d="M1561.4,2576.9c11.9,28,8.4,85.6-51.5,84.8c-74.3-1-72.4-201.2-72.4-201.2S1513.4,2464,1561.4,2576.9z"/>
<path class="st21" d="M869.4,2509.2c-18.6,39.4,6.4,71.1,27.4,60.2c36.7-19.1,52.5-68.2,52.5-68.2S886.1,2474,869.4,2509.2z"/>
<path class="st23" d="M1560.4,2576.9c-39.8-79.7-84.7-117.6-156.6-117.6c-121.1,0-198.8,129.6-213.6,297.2
	c-1.8-20.8-23.3-42.1-24.9-63.7c-21.6-287,135.7-400.2,253.7-400.2C1515.6,2292.5,1539.7,2431.3,1560.4,2576.9z"/>
<path class="st33" d="M1165.4,2760.5c-21.6-287,143-400.2,251.7-400.2c60.3,0,98.1,35.6,127.2,116.6"/>
<path class="st34" d="M712.3,2171.5c-32.3,32-90.7,163.2-18.4,189.2c72.3,26.1,157-230.8,157-230.8S789.6,2094.8,712.3,2171.5z"/>
<g>
	<path class="st10" d="M1308.4,2767.6l-25.8,139.9c-13,70.2-74.2,121.2-145.6,121.2s-132.6-51-145.6-121.2l-25.8-139.9
		c0-7,1.6-13.7,4.4-19.7c20.7,20.8,88,36,167.7,36c78.6,0,145-14.8,166.8-35C1307,2754.6,1308.4,2761,1308.4,2767.6z"/>
	<path class="st19" d="M1291.5,2734.4c0,19.8-68.9,35.8-153.9,35.8s-153.9-16-153.9-35.8c0-1.6,0.4-3.1,1.3-4.6
		c9.8-17.6,74.4-31.1,152.6-31.1c80.6,0,146.7,14.4,153.3,32.7C1291.3,2732.4,1291.5,2733.4,1291.5,2734.4z"/>
</g>
<path class="st22" d="M1192.8,2525.7c0,82.8-11.4,161-31.7,229.8h-58.4c-0.2-347.7-127-629.4-283.3-629.4
	c-40.6,0-79.2,19-114.1,53.2C808.1,2059,850.8,2026,909.5,2026C1049.7,2026,1192.8,2249.7,1192.8,2525.7z"/>
<path class="st20" d="M770.7,2106c33.4-24.3,54.9-35.6,93.2-35.6c156.4,0,314.7,261,273,685"/>
<path class="st23" d="M1137.3,2755.4c0,0,8.6-326.5-169.3-327.6c-47.1-0.3-91.2,74.4-91.2,74.4s208.3-54.4,218.6,253.2
	L1137.3,2755.4L1137.3,2755.4z"/>
<path class="st33" d="M1115.5,2756.4c2.5-92-20.7-314-200.5-302.1"/>
<circle class="st22" cx="876" cy="2176" r="16.5"/>
<circle class="st22" cx="1264.9" cy="2640.3" r="24.1"/>
<circle class="st10" cx="1224.9" cy="2154" r="45.5"/>
<g>
	<path class="st17" d="M1344.4,3187.2l-40.3-200.7c-3.4-17.1-26.2-21.1-35.2-6.1l0,0c-55.6,92.5-206.6,93.1-263.1,0.9l-1-1.7
		c-9.1-14.8-31.7-10.8-35.1,6.2l-40.4,201.3"/>
	<line class="st17" x1="1136.9" y1="3050.2" x2="1136.9" y2="3188.1"/>
</g>
<line class="st17" x1="837.8" y1="3187.2" x2="2178.2" y2="3187.2"/>
</svg>
